Patient4_TMGait_0pt6_02_left_03_EMG.mot
version=1
nRows=30
nColumns=33
inDegrees=no
endheader
time	1LAddLong	2LGlutMax	3LGlutMed	4LIliopsoas	5LSemiMemb	6LBicFemLong	7LRecFem	8LVastMed	9LVastLat	10LGasMed	11LTibAnt	12lTibPost	13LPeroneusLong	14LSol	15LExtDigLong	16LFlexDigLong	17RAddLong	18RGlutMax	19RGlutMed	20RIliopsoas	21RSemiMemb	22RBicFemLong	23RRecFem	24RVastMed	25RVastLat	26RGasMed	27RTibAnt	28RTibPost	29RPeroneusLong	30RSol	31RExtDigLong	32RFlexDigLong
4.43	-0.006409	0.17303	0.56274	-0.003357	-0.003357	-0.015717	-0.12985	0.000458	-0.041962	-0.33508	0.004578	0.080109	-0.055084	0.27588	0.039368	0.15823	0.024567	-0.25284	-0.13062	-0.004578	-0.024567	0.11795	-0.067291	0.59586	0.22598	-0.007629	-0.066833	-0.00946	0.28702	0.030518	-0.002136	0
4.431	0.000763	0.16037	0.57571	0.005951	-0.014038	-0.041046	-0.12802	0.003204	-0.031891	-0.23224	0.006866	-0.19272	-0.09613	0.040436	0.047302	0.10819	0.011292	-0.28137	-0.24689	-0.035858	-0.030975	0.14938	-0.11093	0.61569	0.23819	-0.002441	-0.90836	-0.009918	0.14435	0.1329	-0.002136	-0.00061
4.432	-0.007477	0.18097	0.56473	0.024872	0.011749	-0.043793	-0.10971	0.00412	-0.04364	0.14511	0.002747	0.58273	-0.12848	0.28168	0.036926	0.080261	-0.012817	-0.28	-0.32791	-0.005493	0.008545	0.14725	-0.011139	0.40756	0.047302	-0.008392	-0.83847	-0.002289	-0.19806	0.15076	-0.002747	-0.005188
4.433	-0.005798	0.19119	0.57144	0.031281	-0.00824	-0.038605	-0.11047	0.015411	-0.061188	0.271	-0.001678	-0.058746	-0.14481	0.13504	0.045013	0.13763	0.070801	-0.34241	-0.19547	-0.006714	-0.057373	-0.040131	0.11475	0.28107	-0.042114	-0.006256	-1.0234	-0.001678	-0.17746	0.1683	0.000153	-0.009003
4.434	-0.00351	0.2153	0.5603	0.02533	0.005798	-0.057831	-0.1326	0.004425	-0.036011	-0.006714	-0.009308	-0.56152	-0.17944	-0.022736	0.019684	-0.15778	0.13947	-0.48477	-0.13351	-0.015717	-0.12085	-0.037537	0.080872	0.052795	0.74966	-0.003052	-0.95017	-0.004578	0.20111	0.19348	-0.002441	-0.007629
4.435	-0.005951	0.19043	0.55496	0.01297	-0.003815	-0.11185	-0.16052	0.004578	-0.018768	-0.094452	-0.010529	-0.13596	-0.18173	-0.85983	0.000916	-0.16892	0.20309	-0.5098	-0.3183	-0.096436	-0.20798	-0.061951	0.17654	-0.16968	0.77484	-0.007019	-0.40009	-0.000458	0.43991	0.13962	-0.005341	-0.011292
4.436	0.002136	0.18951	0.53955	0.010071	0.010071	-0.042725	-0.12543	0.005035	-0.024261	-0.042419	-0.006256	0.076904	-0.042114	-0.40695	-0.038605	0.30884	0.21057	-0.54535	-0.38742	-0.091248	-0.085754	0.006561	0.23697	-0.18234	0.23331	-0.002899	-0.26627	0.00473	0.033569	0.085297	0.004883	-0.008698
4.437	0.001526	0.19318	0.53131	0.019379	-0.003967	0.08316	-0.17639	0.005646	-0.012817	-0.023193	-0.010834	-0.005798	0.06134	0.233	-0.031586	0.13092	0.15778	-0.45349	-0.37064	0.032959	0.10941	0.20035	0.24719	-0.17212	-0.16754	-0.002441	-0.32776	0.003357	-0.002136	-0.05722	-0.002289	-0.002136
4.438	-0.010681	0.19394	0.53101	0.011139	-0.031433	0.021515	-0.15915	-0.001984	-0.005798	-0.014648	-0.002747	-0.11932	0.019836	0.00885	0.009766	0.008545	0.15701	-0.51117	-0.31174	0.062256	0.066376	0.24277	0.24674	-0.24048	-0.37033	-0.004578	-0.20599	0.003204	-0.24139	-0.027008	-0.000305	-0.002289
4.439	0.00412	0.16342	0.52322	0.010223	-0.035706	-0.072632	-0.16968	-0.001068	0.000763	0.19134	-0.001831	-0.072174	-0.025024	0.1294	0.039978	-0.28625	0.054169	-0.38879	-0.52628	0.038757	-0.14618	0.14267	0.13534	-0.099182	-0.41931	-0.002289	-0.13641	0.002747	-0.47974	0.15167	-0.001526	-0.00473
4.44	0.009613	0.19028	0.52567	-0.005035	-0.028992	-0.095825	-0.16037	-0.009308	0.016022	0.16205	-0.008698	-0.009155	0.005798	0.242	0.07309	0.066986	-0.047455	-0.40543	-0.63187	0.063477	-0.39597	0.15106	0.028381	0.013428	-0.36377	-0.005951	0.074463	-0.001678	-0.36407	0.084381	0.011292	-0.004578
4.441	0.018005	0.17822	0.52368	-0.001068	-0.016937	-0.10819	-0.1648	-0.003815	0.00473	-0.041962	-0.014191	-0.1059	0.056458	-0.02594	0.074158	0.25589	-0.088196	-0.29098	-0.55954	0.021362	-0.49377	0.19547	0.1593	-0.065613	-0.36041	-0.007324	0.12543	0.002594	-0.23682	0.031738	-0.007019	-0.011597
4.442	0.014038	0.1973	0.51224	0.008545	-0.011139	-0.11215	-0.16617	0.002136	0.003967	-0.095825	-0.010986	-0.10788	0.16007	-0.31784	0.03479	-0.71594	-0.18723	-0.17014	-0.41534	-0.002136	-0.076141	0.31204	-0.023041	-0.063629	-0.00824	-0.009918	-0.10788	-0.000458	0.11536	0.044708	-0.008392	-0.010834
4.443	0.006104	0.1828	0.51651	0.010071	-0.00946	0.005646	-0.14572	0.001068	-0.014801	-0.054474	-0.008087	-0.018616	0.23163	-0.68603	0.032043	-0.64133	-0.14221	-0.15808	0.004578	-0.083008	0.1886	0.33188	-0.043488	-0.1091	0.18036	-0.002747	-0.05722	0.00351	0.05661	0.029907	-0.006104	-0.010071
4.444	0.007782	0.21316	0.50095	-0.005341	-0.028381	0.010681	-0.16052	0	-0.014648	-0.03006	0.005188	-0.057068	0.17639	-0.48431	0.042267	0.007629	-0.04715	-0.1445	-0.072632	-0.076599	0.065918	0.2359	0.012054	-0.075684	0.1004	-0.003357	0.016785	0.001373	0.25604	0.004272	0	-0.013885
4.445	0.020752	0.23712	0.48569	-0.005035	-0.0177	0.077515	-0.13336	-0.004578	-0.00946	-0.034485	0.005035	-0.13886	0.015411	0.09079	0.096741	1.2431	0.01236	-0.24765	0.02182	-0.030975	-0.093536	0.18158	-0.027161	0.41794	-0.017242	-0.007935	0.072784	0.003204	-0.49515	0.071716	-0.007782	-0.013733
4.446	0.015411	0.24506	0.48767	0.001831	0.016937	0.10559	-0.13138	-0.001068	-0.028229	0.020447	0.003967	-0.12802	-0.071716	0.24139	0.08667	-1.1296	0.015564	-0.34149	0.19531	-0.076904	-0.098419	0.14404	-0.089264	0.42511	0.015564	-0.002747	0.12207	0	-0.25192	0.04303	-0.010223	-0.01236
4.447	0.022125	0.28275	0.49835	-0.004425	0.041046	0.046997	-0.11612	-0.001221	-0.034485	0.062866	0.007324	-0.12604	-0.048218	0.23102	0.013733	0.11063	0.014801	-0.32044	0.18875	-0.20309	-0.075989	0.1268	0.06012	0.41321	0.10269	-0.002747	0.14923	-0.001526	0.13473	0.031586	-0.004425	-0.015106
4.448	0.020599	0.35538	0.4892	-0.005798	0.031891	-0.00946	-0.13382	0.001373	-0.037079	0.16617	-0.006714	-0.0914	-0.015411	0.28839	-0.008392	0.77072	-0.012817	-0.22079	-0.006714	-0.23178	-0.20309	0.12909	0.12756	0.29068	0.066681	0.005493	0.1413	0.002136	0.17105	-0.003357	-0.017548	-0.0177
4.449	0.018005	0.33218	0.50079	0.013428	0.023193	-0.017853	-0.14664	0.000916	-0.014496	0.36728	0.000458	-0.003815	-0.037689	0.54459	-0.044098	0.35126	-0.065765	-0.072784	-0.21774	-0.24811	0.21713	0.18402	0.052795	0.067902	0.29282	-0.001221	0.074921	0.003204	-0.063019	-0.03952	-0.010223	-0.011292
4.45	0.015259	0.31799	0.52094	0.007629	0.023346	0.048981	-0.18112	0.000916	0.007782	-0.24384	-0.03006	0.060425	0.060577	0.96161	-0.028076	-0.47379	-0.035095	-0.029144	-0.048523	0.021057	0.32822	0.13092	-0.082092	-0.32761	0.77621	-0.011597	0.072479	0.00061	-0.10071	-0.053406	-0.011292	-0.013123
4.451	0.011749	0.31311	0.52307	0.010834	0.009918	0.070801	-0.17151	0.005646	0.002899	-0.3569	-0.034943	0.036316	0.036011	1.5164	0.006104	-0.92956	0.009308	0.066681	-0.035095	0.37994	-0.075836	0.1001	-0.1738	-0.58762	0.78445	-0.015259	0.083313	0.003357	-0.13031	-0.028992	-0.010376	-0.007477
4.452	0.015106	0.40527	0.51849	0.011902	0.007172	0.029144	-0.20447	0.001831	0.01709	-0.066528	-0.025787	0.027161	0.059662	1.6608	-0.033722	-0.70786	0.064392	0.29144	-0.15884	0.43381	-0.20386	0.090332	0.00885	-0.79422	0.45136	-0.00885	0.094757	0.000458	-0.0914	-0.04837	-0.016632	-0.003052
4.453	0.018616	0.45242	0.53299	-0.006561	0.000305	0.01297	-0.19516	0.006866	0.009308	0.2713	-0.015564	-0.20737	0.061035	0.44647	-0.13611	0.94605	0.097961	0.40131	-0.32211	0.35049	-0.1976	0.042419	0.1973	-0.40787	-0.033722	-0.012207	0.094452	0	0.001984	-0.084381	-0.013123	-0.002747
4.454	0.01236	0.42328	0.53406	0.00412	-0.005493	-0.001068	-0.1918	-0.001526	0.009155	0.77301	-0.017242	0.073853	0.11917	-0.48294	-0.13321	1.0127	0.11932	0.17624	-0.20386	0.11871	0.007782	0.011444	0.33432	-0.21606	-0.3627	-0.00885	0.14053	-0.000763	-0.31433	-0.096893	-0.012207	-0.012817
4.455	0.012207	0.42709	0.54031	0.002136	-0.01358	0.023041	-0.20355	0.003052	0.021362	0.74616	-0.014038	-0.30533	0.14099	-0.91263	-0.082703	-0.3122	0.11124	-0.18662	0.035553	-0.033417	0.2327	0.030823	0.45319	-0.098572	-0.71472	-0.010376	0.19089	0.002594	-0.24658	-0.11063	-0.008698	-0.009003
4.456	0.00885	0.39841	0.53863	0.003967	-0.030823	0.042114	-0.19577	0.009766	0.015869	0.51285	-0.012665	0.18448	0.074005	-0.32318	-0.001526	-0.074768	0.098572	-0.27435	0.072479	-0.103	0.000763	0.072632	0.51422	0.064545	-0.97214	-0.005341	0.1413	0.003662	0.24048	-0.13596	-0.01709	-0.007477
4.457	0.013123	0.40359	0.54977	-0.006866	-0.054016	-0.021057	-0.20798	0.006866	0.027771	0.22492	-0.009918	-0.034943	0.051575	0.12711	0.016785	-0.14908	0.097046	-0.3064	0.71564	-0.15503	-0.22018	0.13458	0.50384	0.082855	-0.97229	-0.009155	0.088196	-0.001831	0.20828	-0.077057	-0.015106	-0.007019
4.458	0.021362	0.43045	0.5545	0.002594	-0.024872	-0.068207	-0.1973	0.000305	0.027008	0.089569	-0.007477	0.084534	0.056763	-0.61432	0.003052	0.23911	0.086975	-0.32913	0.61508	-0.002594	-0.31677	0.20676	0.21439	-0.11673	-0.78369	-0.000305	0.052032	-0.001831	-0.51514	-0.13351	-0.012817	-0.002136
4.459	0.02594	0.42557	0.55969	-0.001678	-0.049591	-0.084229	-0.20554	-0.002594	0.029602	0.19989	-0.010681	-0.021515	-0.025787	-2.1469	0.003662	-0.14084	0.077209	-0.17563	-0.037842	0.14374	0.005341	0.20279	-0.14511	-0.1564	-0.23178	-0.002136	0.067444	-0.002136	-0.578	-0.10513	-0.012817	-0.009766
